<?xml version="1.0" encoding="UTF-8" standalone="no"?>
<!DOCTYPE svg PUBLIC "-//W3C//DTD SVG 1.1//EN" "http://www.w3.org/Graphics/SVG/1.1/DTD/svg11.dtd">
<svg width="100%" height="100%" viewBox="0 0 1200 1200" version="1.1" xmlns="http://www.w3.org/2000/svg" xmlns:xlink="http://www.w3.org/1999/xlink" xml:space="preserve" xmlns:serif="http://www.serif.com/" style="fill-rule:evenodd;clip-rule:evenodd;stroke-linejoin:round;stroke-miterlimit:1.41421;">
    <path d="M1088.38,670.214L947.948,670.214L947.948,529.787L1088.38,529.787L1088.38,670.214ZM931.87,670.213L896.749,670.213L896.749,564.912L856.742,564.912L856.742,670.213L821.614,670.213L821.614,564.912L781.611,564.912L781.611,670.213L746.486,670.213L746.486,529.786L931.87,529.786L931.87,670.213ZM146.739,635.081L252.05,635.081L252.05,670.213L111.618,670.213L111.618,529.786L146.739,529.786L146.739,635.081ZM406.579,635.222L406.579,670.213L266.145,670.213L266.145,635.222L406.579,635.222ZM727.433,670.213L587.012,670.213L587.012,635.081L674.783,564.911L587.012,564.911L587.012,529.786L727.433,529.786L727.433,564.911L639.653,635.081L727.433,635.081L727.433,670.213ZM564.91,670.213L424.486,670.213L424.486,635.081L512.261,564.911L424.486,564.911L424.486,529.786L564.91,529.786L564.91,564.911L477.135,635.081L564.91,635.081L564.91,670.213ZM1053.25,564.913L983.076,564.913L983.076,635.082L1053.25,635.082L1053.25,564.913ZM406.579,582.504L406.579,617.494L266.145,617.494L266.145,582.504L406.579,582.504ZM406.579,529.786L406.579,564.776L266.145,564.776L266.145,529.786L406.579,529.786Z" style="fill:rgb(204,204,204);fill-rule:nonzero;"/>
</svg>
